<svg width="31" height="32" viewBox="0 0 31 32" fill="none" xmlns="http://www.w3.org/2000/svg">
<path fill-rule="evenodd" clip-rule="evenodd" d="M17.6756 22.5462H13.5762V11.3831L17.6756 8.64917V22.5462Z" fill="#00FFEC"/>
<mask id="mask0_101_1359" style="mask-type:alpha" maskUnits="userSpaceOnUse" x="0" y="0" width="31" height="32">
<path fill-rule="evenodd" clip-rule="evenodd" d="M0 0H30.4187V32H0V0Z" fill="white"/>
</mask>
<g mask="url(#mask0_101_1359)">
<path fill-rule="evenodd" clip-rule="evenodd" d="M25.8578 22.9334C23.6726 26.0305 20.0699 28.0594 15.9998 28.0594C9.35055 28.0594 3.94041 22.6493 3.94041 16C3.94041 9.3507 9.35055 3.94138 15.9998 3.94138C21.0167 3.94138 25.3261 7.02056 27.1401 11.3877L30.3854 9.00224C27.7841 3.67759 22.3137 0 15.9998 0C7.17754 0 -0.000152588 7.17769 -0.000152588 16C-0.000152588 24.8223 7.17754 32 15.9998 32C22.3398 32 27.8305 28.2931 30.4187 22.9334H25.8578Z" fill="#00FFEC"/>
</g>
</svg>
