<svg width="216" height="50" viewBox="0 0 216 50" fill="none" xmlns="http://www.w3.org/2000/svg">
<g id="Cluster1-logo">
<path id="Fill 1" fill-rule="evenodd" clip-rule="evenodd" d="M27.08 35.0237H20.8029V17.9303L27.08 13.7439V35.0237Z" fill="#00FFEC"/>
<g id="Group 19">
<g id="Group 4">
<mask id="mask0_0_211" style="mask-type:alpha" maskUnits="userSpaceOnUse" x="0" y="0" width="47" height="50">
<path id="Clip 3" fill-rule="evenodd" clip-rule="evenodd" d="M0.0142822 0.499756H46.593V49.4998H0.0142822V0.499756Z" fill="white"/>
</mask>
<g mask="url(#mask0_0_211)">
<path id="Fill 2" fill-rule="evenodd" clip-rule="evenodd" d="M39.609 35.6166C36.2629 40.359 30.7463 43.4658 24.514 43.4658C14.3323 43.4658 6.04803 35.1815 6.04803 24.9998C6.04803 14.818 14.3323 6.53499 24.514 6.53499C32.1962 6.53499 38.7949 11.25 41.5725 17.9372L46.5418 14.2844C42.5587 6.13107 34.1821 0.499756 24.514 0.499756C11.0049 0.499756 0.0140381 11.4906 0.0140381 24.9998C0.0140381 38.5089 11.0049 49.4998 24.514 49.4998C34.222 49.4998 42.6297 43.8236 46.593 35.6166H39.609Z" fill="#00FFEC"/>
</g>
</g>
<mask id="mask1_0_211" style="mask-type:alpha" maskUnits="userSpaceOnUse" x="0" y="0" width="216" height="50">
<path id="Clip 6" fill-rule="evenodd" clip-rule="evenodd" d="M0.0142822 49.4998H216V0.499756H0.0142822V49.4998Z" fill="white"/>
</mask>
<g mask="url(#mask1_0_211)">
<path id="Fill 5" fill-rule="evenodd" clip-rule="evenodd" d="M162.18 35.4307H167.436V17.6155H162.18V35.4307Z" fill="#00FFEC"/>
<path id="Fill 7" fill-rule="evenodd" clip-rule="evenodd" d="M65.137 21.9822C67.8984 21.9822 73.2181 21.9597 73.3091 21.961V17.5926C73.2143 17.5913 65.2206 17.615 65.1246 17.615C58.6143 17.615 53.5253 20.3365 53.5253 26.5214C53.5253 32.7075 58.7951 35.4278 65.1246 35.4278C65.1445 35.4278 65.1632 35.4278 65.1807 35.4265V35.4278L73.3091 35.3978V31.0905L65.1807 31.1042V31.1055C63.9489 31.1055 58.8749 31.0032 58.8749 26.5201C58.8749 22.0358 63.9053 21.9822 65.137 21.9822" fill="#00FFEC"/>
<path id="Fill 8" fill-rule="evenodd" clip-rule="evenodd" d="M81.8128 31.0559H95.3319V35.4305H76.5567V17.6128H81.8128V31.0559Z" fill="#00FFEC"/>
<path id="Fill 9" fill-rule="evenodd" clip-rule="evenodd" d="M106.995 31.5526C111.902 31.5526 111.891 27.8885 111.891 27.2166V17.6121H117.147V27.2166C117.147 34.2891 112.219 35.9272 106.995 35.9272C101.771 35.9272 96.9678 34.1769 96.9678 27.2166V17.6121H102.224V27.2166C102.224 27.8885 102.088 31.5526 106.995 31.5526" fill="#00FFEC"/>
<path id="Fill 10" fill-rule="evenodd" clip-rule="evenodd" d="M147.225 35.4307H152.481V20.1326H147.225V35.4307Z" fill="#00FFEC"/>
<path id="Fill 11" fill-rule="evenodd" clip-rule="evenodd" d="M164.104 28.5466H179.912V24.2842H164.104V28.5466Z" fill="#00FFEC"/>
<path id="Fill 12" fill-rule="evenodd" clip-rule="evenodd" d="M164.104 35.4308H180.523V31.0562H164.104V35.4308Z" fill="#00FFEC"/>
<path id="Fill 13" fill-rule="evenodd" clip-rule="evenodd" d="M164.104 21.9864H180.523V17.613H164.104V21.9864Z" fill="#00FFEC"/>
<path id="Fill 14" fill-rule="evenodd" clip-rule="evenodd" d="M184.785 35.4307H190.041V17.6155H184.785V35.4307Z" fill="#00FFEC"/>
<path id="Fill 15" fill-rule="evenodd" clip-rule="evenodd" d="M199.425 28.8816C199.798 28.7495 200.193 28.555 200.611 28.2982C201.03 28.0414 201.413 27.7122 201.761 27.3096C202.108 26.9094 202.396 26.4319 202.623 25.8821C202.853 25.3298 202.966 24.6915 202.966 23.9622C202.966 22.8103 202.763 21.8316 202.358 21.0225C201.951 20.2159 201.39 19.5589 200.673 19.054C199.958 18.5491 199.106 18.1825 198.12 17.9544C197.134 17.7275 196.067 17.6128 194.915 17.6128H184.786V21.9862H194.915C195.867 21.9862 196.563 22.1408 197.003 22.4475C197.441 22.7554 197.661 23.2578 197.661 23.956C197.661 24.6616 197.441 25.1677 197.003 25.4707C196.563 25.7736 195.867 25.9257 194.915 25.9257H184.787V29.9264H194.368L197.487 35.4305H203.128L199.425 28.8816Z" fill="#00FFEC"/>
<path id="Fill 16" fill-rule="evenodd" clip-rule="evenodd" d="M216 35.4304H210.744V20.5287L216 17.0217V35.4304Z" fill="#00FFEC"/>
<path id="Fill 17" fill-rule="evenodd" clip-rule="evenodd" d="M136.257 26.0108C135.331 25.466 133.405 24.9473 131.723 24.713C129.868 24.4549 126.923 24.0098 125.572 23.8116C125.222 23.7605 124.902 23.6869 124.663 23.5348C124.38 23.3541 124.21 23.076 124.21 22.7731C124.21 22.4639 124.395 22.1921 124.663 22.0762C124.932 21.959 125.178 21.9353 125.567 21.9353L137.676 21.9677V17.6305L127.366 17.613C125.308 17.613 123.85 17.82 122.643 18.376C120.751 19.2475 119.708 20.8345 119.708 22.712C119.708 24.2567 120.481 25.6305 122.062 26.5668C123.594 27.4719 125.694 27.7711 126.918 27.9319C128.615 28.1551 132.513 28.736 132.513 28.736C133.027 28.8158 133.395 28.938 133.771 29.1649C134.126 29.3806 134.297 29.6997 134.297 30.0126C134.297 30.7794 133.675 31.1072 132.658 31.1072L119.945 31.0935V35.432L131.012 35.4308C133.663 35.4308 135.475 35.1129 136.709 34.1641C138.134 33.0683 138.671 31.6807 138.671 30.0662C138.671 28.564 137.875 26.9607 136.257 26.0108" fill="#00FFEC"/>
<path id="Fill 18" fill-rule="evenodd" clip-rule="evenodd" d="M140.317 21.9864H159.389V17.613H140.317V21.9864Z" fill="#00FFEC"/>
</g>
</g>
</g>
</svg>
