<svg width="40" height="40" viewBox="0 0 40 40" fill="none" xmlns="http://www.w3.org/2000/svg">
<path fill-rule="evenodd" clip-rule="evenodd" d="M19.8793 0C8.90027 0 -1.90735e-05 8.90029 -1.90735e-05 19.8791C-1.90735e-05 30.8581 8.90027 39.7584 19.8793 39.7584C30.8581 39.7584 39.7586 30.8581 39.7586 19.8791C39.7586 8.90029 30.8581 0 19.8793 0ZM24.0356 23.9655C22.7278 23.9655 21.6539 22.798 21.6539 21.3737C21.6539 19.9493 22.7046 18.7818 24.0356 18.7818C25.3663 18.7818 26.417 19.9493 26.417 21.3737C26.417 22.798 25.3663 23.9655 24.0356 23.9655ZM15.5128 23.9655C14.205 23.9655 13.1311 22.798 13.1311 21.3737C13.1311 19.9493 14.1819 18.7818 15.5128 18.7818C16.8438 18.7818 17.9179 19.9493 17.8945 21.3737C17.8945 22.798 16.8438 23.9655 15.5128 23.9655ZM30.153 12.5241C26.7908 10.0023 23.5919 10.0723 23.5919 10.0723L23.2648 10.4459C27.2343 11.6601 29.0791 13.4114 29.0791 13.4114C26.6505 12.0804 24.2691 11.4266 22.0508 11.1698C20.3696 10.983 18.7582 11.0297 17.3341 11.2165C17.194 11.2165 17.0773 11.2398 16.9372 11.2632C16.1199 11.3332 14.1352 11.6368 11.6365 12.7342C10.7728 13.1312 10.2591 13.4114 10.2591 13.4114C10.2591 13.4114 12.1971 11.5667 16.4001 10.3525L16.1666 10.0723C16.1666 10.0723 12.9677 10.0023 9.6053 12.5241C9.6053 12.5241 6.24292 18.6184 6.24292 26.1371C6.24292 26.1371 8.20431 29.5228 13.3646 29.6862C13.3646 29.6862 14.2286 28.6355 14.9291 27.7482C11.9636 26.8609 10.8428 24.9929 10.8428 24.9929C10.8428 24.9929 11.0763 25.1564 11.4966 25.3899C11.5198 25.4132 11.5433 25.4366 11.59 25.4599C11.6601 25.5066 11.7301 25.53 11.8002 25.5767C12.3839 25.9036 12.9677 26.1604 13.5045 26.3706C14.4621 26.7442 15.606 27.1178 16.9372 27.3746C18.6884 27.7015 20.743 27.8183 22.9848 27.398C24.082 27.2112 25.203 26.8843 26.3705 26.3939C27.1878 26.0904 28.0982 25.6467 29.0558 25.0163C29.0558 25.0163 27.8883 26.931 24.8292 27.7949C25.5297 28.6822 26.3705 29.6862 26.3705 29.6862C31.5309 29.5228 33.5156 26.1371 33.5156 26.1371C33.5156 18.6184 30.153 12.5241 30.153 12.5241Z" fill="#8080FF"/>
</svg>
