<svg width="175" height="41" viewBox="0 0 175 41" fill="none" xmlns="http://www.w3.org/2000/svg">
<path fill-rule="evenodd" clip-rule="evenodd" d="M52.4882 14.5941C47.2389 14.5941 43.1363 16.7878 43.1363 21.7741C43.1363 26.7602 47.3856 28.9539 52.4882 28.9539C52.5033 28.9539 52.518 28.9535 52.5329 28.9535V28.9539L59.0855 28.9295V25.4573L52.5329 25.4692V25.4697C51.5395 25.4697 47.4488 25.387 47.4488 21.7727C47.4488 18.1585 51.5044 18.1147 52.4979 18.1147C54.7238 18.1147 59.0126 18.097 59.0855 18.0982V14.5757C59.0093 14.575 52.5657 14.5941 52.4882 14.5941Z" fill="white"/>
<path fill-rule="evenodd" clip-rule="evenodd" d="M65.9403 14.5925H61.7037V28.9556H76.8382V25.4299H65.9403V14.5925Z" fill="white"/>
<path fill-rule="evenodd" clip-rule="evenodd" d="M90.1869 22.3348C90.1869 22.8758 90.1957 25.8305 86.2405 25.8305C82.2855 25.8305 82.3945 22.8758 82.3945 22.3348V14.5925H78.158V22.3348C78.158 27.9465 82.0296 29.356 86.2405 29.356C90.4517 29.356 94.4237 28.0361 94.4237 22.3348V14.5925H90.1869V22.3348Z" fill="white"/>
<path fill-rule="evenodd" clip-rule="evenodd" d="M132.278 14.5942H130.728V28.9556H132.278H134.964H145.514V25.4299H134.964V23.4064H145.021V19.9713H134.964V18.1183H145.514V14.5925H132.278V14.5942Z" fill="white"/>
<path fill-rule="evenodd" clip-rule="evenodd" d="M158.798 20.9265C158.444 21.1708 157.884 21.2934 157.116 21.2934H153.187V18.1181H157.116C157.884 18.1181 158.444 18.2421 158.798 18.4901C159.152 18.7379 159.329 19.1434 159.329 19.7059C159.329 20.2751 159.152 20.6822 158.798 20.9265ZM161.708 23.2065C162.045 22.9992 162.354 22.7339 162.635 22.4099C162.915 22.0864 163.147 21.7023 163.33 21.2582C163.514 20.8143 163.606 20.2981 163.606 19.7108C163.606 18.7826 163.443 17.9928 163.115 17.3419C162.788 16.6911 162.336 16.1617 161.758 15.7546C161.181 15.3475 160.494 15.0517 159.7 14.8682C158.905 14.6846 158.044 14.5924 157.116 14.5924H148.95V18.1181V28.9555H153.187V24.5184H156.675L159.189 28.9555H163.736L160.752 23.6772C161.052 23.5703 161.371 23.4135 161.708 23.2065Z" fill="white"/>
<path fill-rule="evenodd" clip-rule="evenodd" d="M109.83 21.3623C109.083 20.9242 107.53 20.5057 106.175 20.3166C104.679 20.1079 102.305 19.7487 101.215 19.5897C100.935 19.5489 100.676 19.489 100.483 19.3665C100.255 19.2207 100.118 18.9964 100.118 18.7526C100.118 18.5036 100.267 18.2835 100.483 18.1901C100.7 18.0967 100.899 18.0772 101.212 18.0772L110.973 18.1033V14.6076L102.662 14.5927C101.003 14.5927 99.8279 14.7589 98.855 15.2078C97.3304 15.9111 96.4887 17.1896 96.4887 18.7032C96.4887 19.9481 97.1122 21.0567 98.3869 21.8107C99.6215 22.5406 101.315 22.7819 102.301 22.9114C103.669 23.0912 106.812 23.5586 106.812 23.5586C107.225 23.6234 107.522 23.7214 107.825 23.9052C108.112 24.0792 108.25 24.3358 108.25 24.589C108.25 25.2069 107.748 25.471 106.928 25.471L96.6799 25.4603V28.9572L105.602 28.9555C107.738 28.9555 109.2 28.6998 110.195 27.9352C111.343 27.052 111.775 25.9333 111.775 24.6321C111.775 23.4203 111.134 22.1276 109.83 21.3623Z" fill="white"/>
<path fill-rule="evenodd" clip-rule="evenodd" d="M113.103 18.1182H118.672V28.9555H122.909V18.1182H128.477V14.5927H113.103V18.1182Z" fill="white"/>
<path fill-rule="evenodd" clip-rule="evenodd" d="M169.876 16.943V28.9556H174.113V14.1169L169.876 16.943Z" fill="white"/>
<path fill-rule="evenodd" clip-rule="evenodd" d="M19.75 35.4335C11.5419 35.4335 4.86425 28.7558 4.86425 20.5477C4.86425 12.3396 11.5419 5.66221 19.75 5.66221C25.9423 5.66221 31.2619 9.46371 33.502 14.8548L37.5068 11.9097C34.2964 5.33684 27.5442 0.797729 19.75 0.797729C8.85976 0.797729 0 9.65749 0 20.5477C0 31.4382 8.85976 40.2977 19.75 40.2977C27.5761 40.2977 34.3535 35.7225 37.5478 29.1061H31.9182C29.2214 32.9293 24.774 35.4335 19.75 35.4335Z" fill="white"/>
<path fill-rule="evenodd" clip-rule="evenodd" d="M16.7586 28.6278H21.8187V11.4733L16.7586 14.8488V28.6278Z" fill="white"/>
</svg>
