<svg width="42" height="40" viewBox="0 0 42 40" fill="none" xmlns="http://www.w3.org/2000/svg">
<path fill-rule="evenodd" clip-rule="evenodd" d="M21.3064 0C10.0518 0 0.925568 9.12625 0.925568 20.3833C0.925568 29.3869 6.76492 37.0268 14.8652 39.7218C15.8849 39.9083 16.2565 39.2802 16.2565 38.7397C16.2565 38.2554 16.239 36.9742 16.229 35.2726C10.5598 36.505 9.36366 32.5412 9.36366 32.5412C8.43652 30.1865 7.10024 29.5596 7.10024 29.5596C5.24972 28.2946 7.24037 28.3209 7.24037 28.3209C9.28609 28.4648 10.3621 30.4204 10.3621 30.4204C12.1801 33.5359 15.1317 32.6363 16.2941 32.1146C16.4792 30.797 17.0047 29.8987 17.5878 29.3894C13.0622 28.8752 8.30389 27.1273 8.30389 19.316C8.30389 17.0914 9.09841 15.2721 10.4022 13.847C10.192 13.3315 9.49253 11.2595 10.6011 8.45436C10.6011 8.45436 12.3127 7.90508 16.2065 10.5426C17.8318 10.0909 19.576 9.86446 21.3089 9.85695C23.0393 9.86446 24.7834 10.0909 26.4113 10.5426C30.3025 7.90508 32.0104 8.45436 32.0104 8.45436C33.1227 11.2595 32.4233 13.3315 32.2131 13.847C33.5193 15.2721 34.3088 17.0914 34.3088 19.316C34.3088 27.146 29.543 28.8689 25.0024 29.3744C25.7344 30.0025 26.3862 31.2475 26.3862 33.148C26.3862 35.8732 26.3612 38.0715 26.3612 38.7397C26.3612 39.2839 26.7278 39.9183 27.7626 39.7193C35.8541 37.0193 41.6897 29.3844 41.6897 20.3833C41.6897 9.12625 32.5634 0 21.3064 0Z" fill="#6F4F7D"/>
</svg>
