<svg width="41" height="40" viewBox="0 0 41 40" fill="none" xmlns="http://www.w3.org/2000/svg">
<path fill-rule="evenodd" clip-rule="evenodd" d="M28.5104 19.5696C29.2347 16.06 29.9428 12.6285 30.333 10.7955C30.3935 10.5129 30.2929 10.2197 30.0707 10.0308C29.8488 9.84233 29.5415 9.78775 29.2668 9.88969C27.3051 10.616 23.4507 12.0569 19.3502 13.5897C14.6113 15.3612 9.5439 17.2556 6.68983 18.3116C6.3521 18.437 6.13201 18.7616 6.14308 19.1176C6.15518 19.4749 6.39535 19.7843 6.74131 19.8883C9.1286 20.6023 12.2626 21.596 12.2626 21.596C12.2626 21.596 13.7271 26.0186 14.4906 28.268C14.5863 28.5506 14.8075 28.7722 15.0986 28.8489C15.3892 28.9246 15.6999 28.8448 15.9167 28.6399C17.1433 27.4821 19.0394 25.6917 19.0394 25.6917C19.0394 25.6917 22.6422 28.3336 24.6858 29.7888C25.0104 30.0192 25.4293 30.0763 25.8022 29.9352C26.1758 29.7931 26.4499 29.4745 26.5325 29.0881C26.9804 26.984 27.7542 23.2342 28.5104 19.5696ZM0.308472 19.8782C0.308472 8.89992 9.2084 0 20.187 0C31.1653 0 40.0654 8.89992 40.0654 19.8782C40.0654 30.8568 31.1653 39.7567 20.187 39.7567C9.2084 39.7567 0.308472 30.8568 0.308472 19.8782ZM13.5807 21.0372C13.5807 21.0372 21.2543 16.1363 25.5774 13.3755C25.7014 13.2967 25.867 13.3242 25.9568 13.4401C26.0474 13.5559 26.0325 13.7214 25.9236 13.8205C22.1934 17.1842 15.6506 23.0857 15.6506 23.0857L15.2745 26.6229L13.5807 21.0372Z" fill="#6F4F7D"/>
</svg>
