<svg width="40" height="40" viewBox="0 0 40 40" fill="none" xmlns="http://www.w3.org/2000/svg">
<path fill-rule="evenodd" clip-rule="evenodd" d="M29.8231 16.0078C29.8346 16.2132 29.841 16.4197 29.8431 16.6271C29.9078 22.959 25.1622 30.3101 16.3484 30.4001C13.6419 30.4278 11.1158 29.6601 8.98121 28.3228C9.35671 28.3632 9.73828 28.3814 10.1249 28.3774C12.37 28.3546 14.4282 27.5676 16.0554 26.2654C13.9575 26.2478 12.1745 24.8806 11.545 22.983C11.8373 23.0359 12.138 23.0633 12.4466 23.0603C12.8838 23.0558 13.3067 22.9924 13.7081 22.8788C11.5112 22.4618 9.83946 20.5412 9.8158 18.2203C9.8156 18.1992 9.8154 18.1792 9.8163 18.1591C10.4657 18.5118 11.2065 18.7203 11.9927 18.7364C10.6975 17.891 9.83658 16.4321 9.81958 14.7696C9.81063 13.892 10.0392 13.0667 10.444 12.3546C12.8366 15.2298 16.3876 17.1006 20.372 17.2602C20.2862 16.9102 20.2403 16.5449 20.2365 16.1689C20.2095 13.5234 22.3336 11.3555 24.9801 11.3285C26.3582 11.3144 27.6094 11.8843 28.4933 12.8067C29.5827 12.5807 30.6037 12.1709 31.5241 11.6126C31.1773 12.7351 30.4273 13.6815 29.4441 14.2849C30.4122 14.159 31.3334 13.8926 32.1882 13.5023C31.5564 14.4697 30.7517 15.322 29.8231 16.0078ZM19.6755 0.0010566C8.69754 0.113071 -0.110958 9.10326 0.0010566 20.0812C0.113071 31.0592 9.10326 39.8678 20.0812 39.7557C31.0592 39.6437 39.8678 30.6535 39.7557 19.6755C39.6437 8.69754 30.6534 -0.110958 19.6755 0.0010566Z" fill="#6F4F7D"/>
</svg>
