<svg width="1440" height="1116" viewBox="0 0 1440 1116" fill="none" xmlns="http://www.w3.org/2000/svg">
<mask id="mask0_0_39" style="mask-type:alpha" maskUnits="userSpaceOnUse" x="-1" y="0" width="1442" height="1116">
<path d="M-0.25 2.62795C-0.25 1.52339 0.645431 0.62793 1.75 0.62793H1438.25C1439.35 0.62793 1440.25 1.52336 1440.25 2.62793V1056C1440.25 1089.14 1413.39 1116 1380.25 1116H59.75C26.6129 1116 -0.25 1089.14 -0.25 1056V2.62795Z" fill="white"/>
</mask>
<g mask="url(#mask0_0_39)">
<g filter="url(#filter0_f_0_39)">
<path fill-rule="evenodd" clip-rule="evenodd" d="M1496 1426.6C1128.66 1624.76 172.249 1422.69 -127.848 1245.24C-427.944 1067.79 3.60162 910.552 602.364 739.806C1201.13 569.06 1863.34 1228.44 1496 1426.6Z" fill="#8000FF" fill-opacity="0.203595"/>
</g>
<g filter="url(#filter1_f_0_39)">
<path fill-rule="evenodd" clip-rule="evenodd" d="M862.658 981.883C1555.45 1061.31 1690.85 1400.85 1468.32 1528.47C1245.8 1656.09 607.484 1548.81 -167.989 1391.19C-943.462 1233.57 169.867 902.452 862.658 981.883Z" fill="#0000FF" fill-opacity="0.196528"/>
</g>
</g>
<defs>
<filter id="filter0_f_0_39" x="-345.328" y="592.255" width="2066.54" height="1035.74" filterUnits="userSpaceOnUse" color-interpolation-filters="sRGB">
<feFlood flood-opacity="0" result="BackgroundImageFix"/>
<feBlend mode="normal" in="SourceGraphic" in2="BackgroundImageFix" result="shape"/>
<feGaussianBlur stdDeviation="59.8022" result="effect1_foregroundBlur_0_39"/>
</filter>
<filter id="filter1_f_0_39" x="-567.785" y="833.851" width="2270.46" height="886.999" filterUnits="userSpaceOnUse" color-interpolation-filters="sRGB">
<feFlood flood-opacity="0" result="BackgroundImageFix"/>
<feBlend mode="normal" in="SourceGraphic" in2="BackgroundImageFix" result="shape"/>
<feGaussianBlur stdDeviation="67.957" result="effect1_foregroundBlur_0_39"/>
</filter>
</defs>
</svg>
