<svg width="71" height="60" viewBox="0 0 71 60" fill="none" xmlns="http://www.w3.org/2000/svg">
<mask id="mask0_0_68" style="mask-type:alpha" maskUnits="userSpaceOnUse" x="48" y="28" width="23" height="4">
<path fill-rule="evenodd" clip-rule="evenodd" d="M48.0898 28.3937H70.9094V31.7214H48.0898V28.3937Z" fill="white"/>
</mask>
<g mask="url(#mask0_0_68)">
<path fill-rule="evenodd" clip-rule="evenodd" d="M69.2455 28.3937H49.7536C48.8348 28.3937 48.0898 29.1387 48.0898 30.0576C48.0898 30.9764 48.8348 31.7214 49.7536 31.7214H69.2455C70.1644 31.7214 70.9094 30.9764 70.9094 30.0576C70.9094 29.1387 70.1644 28.3937 69.2455 28.3937Z" fill="#00FFFF"/>
</g>
<path fill-rule="evenodd" clip-rule="evenodd" d="M35.9094 23.3382C39.4188 23.3382 42.2738 26.1932 42.2738 29.7026C42.2738 33.2119 39.4188 36.0671 35.9094 36.0671C32.4001 36.0671 29.5451 33.2119 29.5451 29.7026C29.5451 26.1932 32.4001 23.3382 35.9094 23.3382ZM2.57329 31.7214H26.4303C27.3618 36.0998 31.2574 39.3948 35.9094 39.3948C41.2537 39.3948 45.6015 35.0469 45.6015 29.7026C45.6015 24.3583 41.2537 20.0105 35.9094 20.0105C31.0093 20.0105 26.9494 23.6666 26.3082 28.3937H2.57329C1.65429 28.3937 0.909439 29.1386 0.909439 30.0575C0.909439 30.9765 1.65429 31.7214 2.57329 31.7214Z" fill="#00FFFF"/>
<path fill-rule="evenodd" clip-rule="evenodd" d="M24.6372 11.976H69.2455C70.1645 11.976 70.9094 11.231 70.9094 10.3122C70.9094 9.39331 70.1645 8.64832 69.2455 8.64832H24.6372C23.7183 8.64832 22.9733 9.39331 22.9733 10.3122C22.9733 11.231 23.7183 11.976 24.6372 11.976Z" fill="#00FFFF"/>
<path fill-rule="evenodd" clip-rule="evenodd" d="M10.6015 3.54756C14.1109 3.54756 16.9659 6.40259 16.9659 9.91194C16.9659 13.4213 14.1109 16.2765 10.6015 16.2765C7.0922 16.2765 4.23716 13.4213 4.23716 9.91194C4.23716 6.40259 7.0922 3.54756 10.6015 3.54756ZM10.6015 19.6042C15.9458 19.6042 20.2936 15.2562 20.2936 9.91194C20.2936 4.56764 15.9458 0.219849 10.6015 0.219849C5.25724 0.219849 0.909454 4.56764 0.909454 9.91194C0.909454 15.2562 5.25724 19.6042 10.6015 19.6042Z" fill="#00FFFF"/>
<mask id="mask1_0_68" style="mask-type:alpha" maskUnits="userSpaceOnUse" x="0" y="40" width="71" height="20">
<path fill-rule="evenodd" clip-rule="evenodd" d="M0.909393 40.1109H70.9094V59.4952H0.909393V40.1109Z" fill="white"/>
</mask>
<g mask="url(#mask1_0_68)">
<path fill-rule="evenodd" clip-rule="evenodd" d="M61.2173 56.1675C57.7079 56.1675 54.8529 53.3124 54.8529 49.8031C54.8529 46.2938 57.7079 43.4386 61.2173 43.4386C64.7266 43.4386 67.5816 46.2938 67.5816 49.8031C67.5816 53.3124 64.7266 56.1675 61.2173 56.1675ZM61.2173 40.1109C56.4405 40.1109 52.4626 43.5853 51.671 48.1392H2.5732C1.65434 48.1392 0.909348 48.8841 0.909348 49.8031C0.909348 50.722 1.65434 51.467 2.5732 51.467H51.671C52.4626 56.0208 56.4405 59.4952 61.2173 59.4952C66.5616 59.4952 70.9093 55.1474 70.9093 49.8031C70.9093 44.4588 66.5616 40.1109 61.2173 40.1109Z" fill="#00FFFF"/>
</g>
</svg>
