<svg width="74" height="74" viewBox="0 0 74 74" fill="none" xmlns="http://www.w3.org/2000/svg">
<g clip-path="url(#clip0_14_1687)">
<path d="M37.4714 73.4951C32.6578 73.508 27.8894 72.5697 23.4422 70.7345C18.995 68.8993 14.9574 66.2036 11.5631 62.8036C8.14978 59.4225 5.44374 55.4005 3.60167 50.9704C1.75959 46.5403 0.81808 41.7902 0.831657 36.9951C0.818375 32.1999 1.75998 27.4497 3.60203 23.0194C5.44408 18.5891 8.15 14.5667 11.5631 11.1852C14.9576 7.78543 18.9952 5.09009 23.4424 3.25514C27.8896 1.4202 32.6579 0.482099 37.4714 0.495136C42.3519 0.480194 47.1855 1.44403 51.6841 3.32921C56.1827 5.21438 60.2544 7.98234 63.6565 11.4681C63.9835 11.801 64.1656 12.2489 64.1631 12.7146C64.1606 13.1804 63.9738 13.6264 63.6432 13.9557L40.5131 36.9951L63.6446 60.0346C63.9752 60.3639 64.1621 60.8099 64.1646 61.2757C64.1671 61.7414 63.9851 62.1893 63.658 62.5222C60.2555 66.0079 56.1835 68.7757 51.6847 70.6609C47.1858 72.5461 42.3521 73.51 37.4714 73.4951ZM37.4714 4.03196C33.1244 4.02044 28.8181 4.86774 24.8019 6.52484C20.7857 8.18194 17.1393 10.6159 14.0736 13.686C10.9912 16.7399 8.54751 20.3725 6.88397 24.3735C5.22043 28.3746 4.37008 32.6645 4.38217 36.9951C4.36995 41.3256 5.2202 45.6154 6.88375 49.6162C8.5473 53.617 10.9911 57.2493 14.0736 60.3028C17.139 63.3734 20.7853 65.8078 24.8016 67.4652C28.8178 69.1226 33.1242 69.97 37.4714 69.9583C45.7692 69.9844 53.7686 66.8776 59.8589 61.2636L36.7495 38.2448C36.584 38.0805 36.4527 37.8853 36.3631 37.6704C36.2735 37.4554 36.2273 37.2249 36.2273 36.9922C36.2273 36.7594 36.2735 36.529 36.3631 36.314C36.4527 36.0991 36.584 35.9039 36.7495 35.7396L59.8589 12.7193C53.7675 7.10796 45.7682 4.00387 37.4714 4.03196Z" fill="#00FFFF"/>
<path d="M66.4541 52.4423C66.2209 52.4425 65.9899 52.3969 65.7744 52.3081C65.5589 52.2194 65.363 52.0892 65.198 51.925L51.4665 38.2449C51.1334 37.9136 50.9461 37.4641 50.9457 36.9952C50.9457 36.7628 50.9917 36.5327 51.0811 36.318C51.1704 36.1033 51.3014 35.9083 51.4665 35.7441L65.198 22.0654C65.3643 21.9005 65.5617 21.77 65.7787 21.6812C65.9958 21.5924 66.2283 21.5472 66.463 21.5482C66.6976 21.5493 66.9296 21.5968 67.1457 21.6879C67.3618 21.7789 67.5576 21.9118 67.7219 22.0787C71.6486 26.0569 73.8437 31.4161 73.8317 36.9952C73.8453 42.5735 71.6524 47.9326 67.7278 51.9118C67.5636 52.0787 67.3677 52.2115 67.1516 52.3026C66.9356 52.3936 66.7035 52.4411 66.4689 52.4423H66.4541ZM55.2314 36.9952L66.3771 48.0964C68.9126 44.9485 70.2903 41.0311 70.2812 36.9952C70.2899 32.959 68.9123 29.0412 66.3771 25.8926L55.2314 36.9952Z" fill="#00FFFF"/>
</g>
<defs>
<clipPath id="clip0_14_1687">
<rect width="73" height="73" fill="white" transform="translate(0.831726 0.495239)"/>
</clipPath>
</defs>
</svg>
