<svg width="74" height="74" viewBox="0 0 74 74" fill="none" xmlns="http://www.w3.org/2000/svg">
<g clip-path="url(#clip0_15_1688)">
<path d="M53.6618 33.1538C48.3146 33.161 43.1885 35.2883 39.4074 39.0694C35.6264 42.8504 33.4991 47.9766 33.4919 53.3238C33.4881 56.5938 34.2847 59.8152 35.8122 62.7066C31.0345 62.4142 26.4465 60.7315 22.6126 57.8657C18.4367 54.7484 15.3383 50.4052 13.7498 45.4422C13.5971 44.9597 13.2589 44.5576 12.8098 44.3244C12.3607 44.0912 11.8373 44.0459 11.3548 44.1985C10.8723 44.3513 10.4702 44.6894 10.237 45.1385C10.0037 45.5877 9.95853 46.111 10.1112 46.5936C11.9194 52.3311 15.4979 57.3487 20.3336 60.927C25.2621 64.6108 31.2543 66.5932 37.4073 66.5758C37.7937 66.5758 38.1403 66.5758 38.4568 66.5758C40.3471 68.7509 42.6824 70.4949 45.3047 71.6897C47.927 72.8845 50.7753 73.5024 53.657 73.5016C59.0048 73.4949 64.1315 71.3675 67.913 67.5861C71.6944 63.8046 73.8218 58.6779 73.8285 53.3301C73.823 47.9824 71.6969 42.8551 67.9164 39.0727C64.1358 35.2904 59.0096 33.1618 53.6618 33.1538ZM53.6618 69.6785C49.3266 69.6713 45.171 67.9459 42.1057 64.8803C39.0404 61.8147 37.3154 57.659 37.3087 53.3238C37.3158 48.9888 39.041 44.8335 42.1063 41.7682C45.1716 38.703 49.3269 36.9777 53.6618 36.9706C57.997 36.9773 62.1528 38.7023 65.2184 41.7676C68.284 44.833 70.0094 48.9886 70.0166 53.3238C70.0098 57.6592 68.2846 61.8152 65.2189 64.8809C62.1533 67.9465 57.9973 69.6718 53.6618 69.6785Z" fill="#01FEFF"/>
<path d="M41.1731 20.6651C41.176 18.129 40.6979 15.6154 39.7641 13.2574C44.4926 13.7086 48.9925 15.5066 52.73 18.4381C56.4674 21.3696 59.2855 25.3117 60.85 29.7967C60.9801 30.1709 61.2235 30.4955 61.5464 30.7251C61.8693 30.9548 62.2556 31.0783 62.6519 31.0785C62.8652 31.0782 63.077 31.0422 63.2784 30.9719C63.5153 30.8897 63.7337 30.7616 63.9211 30.595C64.1084 30.4284 64.2612 30.2265 64.3704 30.0008C64.4797 29.7751 64.5435 29.5301 64.5581 29.2798C64.5726 29.0295 64.5376 28.7787 64.4552 28.5419C62.5127 22.9744 58.8996 18.1419 54.109 14.7037C49.3184 11.2656 43.5836 9.38934 37.6872 9.33098C35.839 6.60985 33.3532 4.38216 30.4465 2.84208C27.5399 1.302 24.3006 0.496272 21.0112 0.495209C15.6637 0.501941 10.5372 2.6291 6.7558 6.41018C2.97442 10.1913 0.846814 15.3176 0.839661 20.6651C0.846394 26.0129 2.97383 31.1397 6.75526 34.9211C10.5367 38.7025 15.6635 40.8299 21.0112 40.8366C26.3573 40.8274 31.4817 38.6989 35.261 34.9177C39.0404 31.1366 41.1664 26.0112 41.1731 20.6651ZM4.64848 20.6651C4.65563 16.3299 6.38106 12.1744 9.44667 9.10905C12.5123 6.04374 16.668 4.31868 21.0032 4.31195C25.3381 4.3191 29.4935 6.04433 32.5587 9.10959C35.624 12.1749 37.3492 16.3302 37.3564 20.6651C37.3497 25.0003 35.6247 29.1561 32.5594 32.2217C29.494 35.2873 25.3384 37.0127 21.0032 37.0199C16.6677 37.0131 12.5118 35.2879 9.44613 32.2222C6.38047 29.1566 4.65521 25.0006 4.64848 20.6651Z" fill="#01FEFF"/>
</g>
<defs>
<clipPath id="clip0_15_1688">
<rect width="73" height="73" fill="white" transform="translate(0.831726 0.495239)"/>
</clipPath>
</defs>
</svg>
