<svg width="96" height="96" viewBox="0 0 96 96" fill="none" xmlns="http://www.w3.org/2000/svg">
<circle cx="48" cy="48" r="48" fill="url(#paint0_linear_8_1324)"/>
<path fill-rule="evenodd" clip-rule="evenodd" d="M45.1287 30.6129C45.1291 30.6125 45.1293 30.6121 45.1297 30.6116C47.6958 31.9282 50.5038 32.3794 53.1908 32.3716C54.7522 33.8056 56.0511 35.49 57.2716 37.2196C57.7777 37.9421 58.2341 38.698 58.6378 39.4824C59.5711 41.2796 60.2575 43.1812 60.952 45.1052C61.1557 45.6694 61.3601 46.2357 61.5716 46.8017C61.6379 47.044 61.7071 47.2864 61.7793 47.5289L61.783 47.528C62.8557 51.2071 64.422 55.1372 66.5207 58.3822L66.5187 58.3831C67.2128 59.449 67.9905 60.4584 68.8443 61.4016C69.0123 61.5833 69.1841 61.7634 69.3562 61.9436L69.3563 61.9437L69.3563 61.9437L69.3565 61.944C70.1604 62.7861 70.9699 63.6343 71.4288 64.6954C72.0002 66.0177 71.9563 67.5387 71.6127 68.9381C69.9912 75.5341 63.6392 77.2672 57.5686 77.427L57.5715 77.4194C55.2954 77.4648 53.035 77.2951 51.0306 77.0897C51.0306 77.0897 41.3636 76.0891 33.1695 70.0984L32.9051 69.9019C32.9051 69.9019 32.9051 69.9019 32.9051 69.9018C31.9487 69.1891 31.0362 68.4191 30.1728 67.596C27.876 65.4039 25.8325 62.9177 24.2697 60.1882C24.2802 60.1777 24.2906 60.1672 24.301 60.1567C24.1161 59.8239 23.9388 59.4877 23.7691 59.148C22.2573 56.1223 21.3359 52.8285 21.2942 49.3276C21.2231 43.453 23.2328 37.437 27.0528 33.0754C27.0514 33.0718 27.0501 33.0682 27.0487 33.0646C29.117 30.799 31.7022 29.0192 34.7627 28.0059C36.6813 27.3648 38.6955 27.057 40.718 27.0958C41.9487 28.5409 43.4463 29.735 45.1287 30.6129ZM40.4198 69.0491C41.8028 68.5443 43.113 67.8654 44.3348 67.0288C43.1053 67.8597 41.7932 68.539 40.4198 69.0491Z" fill="url(#paint1_linear_8_1324)"/>
<path fill-rule="evenodd" clip-rule="evenodd" d="M65.1933 25.8286C65.1943 25.8286 65.1952 25.8286 65.1962 25.8285L65.2797 25.7747C54.5018 7.38969 40.4089 21.8644 40.4089 21.8644L40.4291 21.8998C40.4282 21.9001 40.4275 21.9003 40.4266 21.9005C48.5306 36.1088 63.9322 26.6388 65.1933 25.8286Z" fill="url(#paint2_linear_8_1324)"/>
<path d="M51.8332 57.4939C48.8633 64.5934 43.1611 69.2943 36.2526 70.0064C36.1041 70.0262 34.2133 70.1754 33.1696 70.0983C41.3636 76.089 51.0306 77.0896 51.0306 77.0896C53.1004 77.3017 55.4431 77.4757 57.7942 77.4142C58.6223 75.2525 59.0882 72.7776 58.9546 69.9696C58.6442 63.4479 62.4258 60.0997 66.5208 58.3821C64.422 55.1371 62.8558 51.207 61.7831 47.5278C58.5855 48.3785 54.5245 51.0535 51.8332 57.4939Z" fill="url(#paint3_linear_8_1324)"/>
<path d="M58.8252 69.9237C58.9595 72.7317 58.3966 75.2653 57.5686 77.4269C63.6392 77.2671 69.9912 75.534 71.6127 68.938C71.9563 67.5386 72.0002 66.0176 71.4288 64.6953C70.8716 63.4069 69.7975 62.4325 68.8443 61.4015C67.9526 60.4165 67.144 59.3592 66.4267 58.2407C62.3353 59.959 58.5147 63.4027 58.8252 69.9237Z" fill="url(#paint4_linear_8_1324)"/>
<path d="M61.5716 46.8017C60.6389 44.3056 59.8448 41.8067 58.6377 39.4824C58.2341 38.698 57.7777 37.942 57.2716 37.2196C56.0511 35.49 54.7521 33.8056 53.1908 32.3716C50.5038 32.3794 47.6958 31.9282 45.1297 30.6116C42.5303 34.2985 39.5562 40.5529 42.2786 47.692C46.2985 58.2351 38.1405 65.4407 32.905 69.9019L33.1695 70.0984C34.1511 70.175 35.1378 70.1609 36.1168 70.056C43.0246 69.3432 49.057 64.5292 52.0269 57.4304C54.7189 50.99 58.6349 48.5434 61.8283 47.692C61.7382 47.395 61.6527 47.0982 61.5716 46.8017Z" fill="url(#paint5_linear_8_1324)"/>
<path d="M27.3337 32.7612C23.3314 37.1454 21.2213 43.3107 21.2942 49.3276C21.3359 52.8285 22.2573 56.1223 23.7691 59.148C23.9959 59.602 24.2363 60.0498 24.4904 60.4916C32.9043 52.0457 29.8644 39.4612 27.3337 32.7612Z" fill="url(#paint6_linear_8_1324)"/>
<path d="M42.4201 47.692C39.6977 40.5501 42.6053 34.3367 45.2012 30.6505C43.4893 29.7692 41.9664 28.5616 40.718 27.0958C38.6955 27.057 36.6813 27.3648 34.7627 28.0059C31.7023 29.0192 29.1171 30.799 27.0487 33.0646C29.5237 39.6174 32.4978 51.9276 24.2698 60.1882C25.8325 62.9177 27.8761 65.4039 30.1728 67.596C31.0787 68.4596 32.0385 69.2647 33.0465 70.0065C38.282 65.5474 46.44 58.2351 42.4201 47.692Z" fill="url(#paint7_linear_8_1324)"/>
<path d="M52.5714 23.0355C58.2686 25.2834 62.2589 25.8923 65.1517 25.8053L65.2351 25.7516C54.4572 7.3665 40.3644 21.8412 40.3644 21.8412L40.3849 21.8773C43.4248 21.3384 47.8429 21.1708 52.5714 23.0355Z" fill="url(#paint8_linear_8_1324)"/>
<path d="M52.6421 22.9082C47.9164 21.0464 43.4729 21.1171 40.3821 21.8772C48.4864 36.0861 63.8888 26.6149 65.1489 25.8053C62.2539 25.8923 58.3393 25.1561 52.6421 22.9082Z" fill="url(#paint9_linear_8_1324)"/>
<defs>
<linearGradient id="paint0_linear_8_1324" x1="0.202906" y1="0" x2="0.202906" y2="95.5942" gradientUnits="userSpaceOnUse">
<stop stop-color="white"/>
<stop offset="1" stop-color="#EEF4FE"/>
</linearGradient>
<linearGradient id="paint1_linear_8_1324" x1="-4.85193" y1="68.515" x2="60.8849" y2="108.283" gradientUnits="userSpaceOnUse">
<stop stop-color="#E54033"/>
<stop offset="0.489583" stop-color="#FECA1A"/>
<stop offset="1" stop-color="#AFD803"/>
</linearGradient>
<linearGradient id="paint2_linear_8_1324" x1="22655.7" y1="1123.01" x2="21282.8" y2="-3876.82" gradientUnits="userSpaceOnUse">
<stop offset="0.15" stop-color="#6CBF00"/>
<stop offset="1" stop-color="#AFD803"/>
</linearGradient>
<linearGradient id="paint3_linear_8_1324" x1="31.968" y1="89.1066" x2="72.5839" y2="76.8185" gradientUnits="userSpaceOnUse">
<stop offset="0.21" stop-color="#E54033"/>
<stop offset="0.84" stop-color="#FECA1A"/>
</linearGradient>
<linearGradient id="paint4_linear_8_1324" x1="58.8674" y1="76.3606" x2="71.6098" y2="76.4136" gradientUnits="userSpaceOnUse">
<stop stop-color="#FECA1A"/>
<stop offset="0.4" stop-color="#FECA1A"/>
<stop offset="1" stop-color="#AFD803"/>
</linearGradient>
<linearGradient id="paint5_linear_8_1324" x1="42.9975" y1="88.7085" x2="76.9325" y2="64.12" gradientUnits="userSpaceOnUse">
<stop offset="0.16" stop-color="#E54033"/>
<stop offset="0.84" stop-color="#FECA1A"/>
</linearGradient>
<linearGradient id="paint6_linear_8_1324" x1="22.6625" y1="33.8728" x2="13.1596" y2="52.4469" gradientUnits="userSpaceOnUse">
<stop stop-color="#FECA1A"/>
<stop offset="0.76" stop-color="#E54033"/>
</linearGradient>
<linearGradient id="paint7_linear_8_1324" x1="32.5747" y1="22.627" x2="15.5541" y2="38.0027" gradientUnits="userSpaceOnUse">
<stop offset="0.16" stop-color="#FECA1A"/>
<stop offset="1" stop-color="#E54033"/>
</linearGradient>
<linearGradient id="paint8_linear_8_1324" x1="29.123" y1="21.9697" x2="35.6806" y2="38.9401" gradientUnits="userSpaceOnUse">
<stop offset="0.15" stop-color="#6CBF00"/>
<stop offset="1" stop-color="#AFD803"/>
</linearGradient>
<linearGradient id="paint9_linear_8_1324" x1="25018.2" y1="1530.56" x2="24515.6" y2="-3106.05" gradientUnits="userSpaceOnUse">
<stop offset="0.15" stop-color="#6CBF00"/>
<stop offset="1" stop-color="#AFD803"/>
</linearGradient>
</defs>
</svg>
