<svg width="96" height="96" viewBox="0 0 96 96" fill="none" xmlns="http://www.w3.org/2000/svg">
<circle cx="48" cy="48" r="48" fill="url(#paint0_linear_8_1325)"/>
<path fill-rule="evenodd" clip-rule="evenodd" d="M48.2291 82.1C43.0416 82.1 38.8347 77.8976 38.8291 72.71C38.8299 71.6893 38.9988 70.6757 39.3291 69.71C34.5694 68.6189 31.4615 64.0356 32.2091 59.21C32.2882 58.6786 32.4188 58.1561 32.5991 57.65C30.719 57.2016 29.0222 56.1856 27.7391 54.74C25.4116 52.1433 24.7462 48.4565 26.0191 45.21C21.799 43.5934 19.334 39.195 20.158 34.7516C20.9819 30.3082 24.86 27.086 29.3791 27.09C31.6146 27.0851 33.7781 27.8796 35.4791 29.33C35.776 29.0662 36.09 28.8223 36.4191 28.6L36.8091 28.39L36.9891 28.29C37.3224 28.0974 37.6663 27.9237 38.0191 27.77L38.4691 27.62L38.6691 27.56C39.0305 27.4415 39.3976 27.3413 39.7691 27.26H40.1991H40.3891C40.7701 27.2048 41.1543 27.1747 41.5391 27.17H41.9791H42.1691C42.5684 27.1914 42.9658 27.2382 43.3591 27.31C43.5118 27.3394 43.6622 27.3795 43.8091 27.43L44.0191 27.49C44.3797 27.5796 44.7338 27.6932 45.0791 27.83C45.2668 27.9067 45.4398 27.998 45.6169 28.0915L45.7091 28.14L45.9091 28.25L46.1391 28.37C46.2994 28.436 46.4533 28.5163 46.5991 28.61C46.8208 28.767 46.9742 28.8899 47.1146 29.0023L47.1146 29.0023L47.1491 29.03C46.1491 24.32 44.2691 18.09 38.9391 16.39C37.8417 15.986 36.6877 15.7566 35.5191 15.71C32.8091 15.71 30.0691 17.26 25.4191 21.41C25.0118 21.7591 24.4356 21.8316 23.9545 21.5943C23.4733 21.357 23.1801 20.8557 23.2091 20.32C23.222 19.9656 23.3814 19.6325 23.6491 19.4C28.7991 14.79 32.1291 13 35.5091 13C36.9856 13.0318 38.4461 13.3124 39.8291 13.83C42.9291 14.89 44.9791 16.53 47.0891 20.36C48.4522 20.574 49.8294 20.6843 51.2091 20.69C60.8791 20.69 63.6791 14.69 63.7891 14.45C64.0088 13.9683 64.4897 13.6594 65.0191 13.66C65.2058 13.6592 65.3904 13.7002 65.5591 13.78C65.8853 13.9205 66.1417 14.1855 66.2713 14.5161C66.4009 14.8466 66.3929 15.2153 66.2491 15.54C66.1091 15.86 62.6691 23.39 51.2491 23.39C50.263 23.3827 49.2781 23.3192 48.2991 23.2C48.8601 24.7692 49.321 26.3725 49.6791 28C50.9343 27.4241 52.2982 27.1241 53.6791 27.12C55.4543 27.1266 57.19 27.6439 58.6791 28.61C59.0077 28.8214 59.3187 29.0588 59.6091 29.32C62.9484 26.4513 67.8333 26.2908 71.3536 28.9341C74.8739 31.5773 76.0825 36.3131 74.2591 40.32C73.5908 41.8393 72.5272 43.1516 71.1791 44.12C72.1204 45.798 72.5186 47.7264 72.3191 49.64C71.8095 54.0609 68.2874 57.5289 63.8591 57.97C64.0765 58.618 64.2175 59.2893 64.2791 59.97C64.4522 62.44 63.6396 64.8779 62.0191 66.75C60.737 68.2542 59.0051 69.306 57.0791 69.75C57.4167 70.7142 57.5891 71.7284 57.5891 72.75C57.5564 77.9041 53.3833 82.0727 48.2291 82.1ZM48.2291 66C45.7719 65.9051 43.4596 67.1619 42.2028 69.2755C40.9459 71.3891 40.9459 74.0209 42.2028 76.1345C43.4596 78.2481 45.7719 79.5049 48.2291 79.41H48.5091C52.125 79.2169 54.9354 76.1897 54.8598 72.5695C54.7843 68.9493 51.8499 66.042 48.2291 66ZM35.4976 57.6135C36.6337 55.356 38.9419 53.9283 41.4691 53.92C43.4189 53.9329 45.2662 54.7946 46.5291 56.28C45.7316 57.8408 45.3852 59.5931 45.5291 61.34C45.5978 62.1043 45.7624 62.8569 46.0191 63.58C43.8201 64.1197 41.8868 65.4286 40.5691 67.27C38.7792 67.0208 37.1648 66.0622 36.0891 64.61C34.5901 62.5753 34.3614 59.871 35.4976 57.6135ZM48.7891 63.35C51.6183 63.5181 54.2201 64.955 55.8691 67.26C59.3709 66.7886 61.9047 63.6788 61.659 60.1539C61.4133 56.6291 58.4725 53.901 54.9391 53.92H54.4191C52.2424 54.0795 50.2797 55.2892 49.1592 57.1622C48.0386 59.0351 47.9005 61.3365 48.7891 63.33V63.35ZM69.708 48.9106C69.5166 52.4667 66.5804 55.2539 63.0191 55.26L62.5991 55.28C61.2567 53.3883 59.2621 52.0598 56.9991 51.55C55.9726 49.4741 56.0908 47.0153 57.3118 45.0475C58.5327 43.0797 60.6833 41.882 62.9991 41.88C63.2456 41.8651 63.4927 41.8651 63.7391 41.88C67.2792 42.2682 69.8993 45.3544 69.708 48.9106ZM34.7891 41.83C33.154 41.8312 31.5755 42.4285 30.3491 43.51C29.0078 44.6869 28.1906 46.3495 28.078 48.1304C27.9654 49.9112 28.5667 51.6636 29.7491 53C30.7691 54.1575 32.1572 54.9275 33.6791 55.18H33.8791C34.4315 54.3765 35.1063 53.6645 35.8791 53.07C36.8219 52.381 37.8877 51.8787 39.0191 51.59C38.8689 51.1792 38.7486 50.7581 38.6591 50.33C38.2032 48.1298 38.5584 45.8389 39.6591 43.88C38.3832 42.5613 36.6241 41.8209 34.7891 41.83ZM41.8197 51.2811L41.7891 51.28L41.8291 51.3L41.8197 51.2811ZM48.1591 54.1C46.4854 52.3819 44.2158 51.3729 41.8197 51.2811C40.7761 49.1897 40.9279 46.6996 42.2191 44.75C44.2315 41.6449 48.3755 40.7508 51.4891 42.75C52.6327 43.4925 53.5169 44.5724 54.0191 45.84C53.4791 47.6165 53.4791 49.5135 54.0191 51.29C51.7929 51.4967 49.7142 52.4935 48.1591 54.1ZM47.8991 39C49.6725 38.999 51.4085 39.5094 52.8991 40.47C53.9141 41.1324 54.7849 41.9929 55.4591 43C56.0187 42.2342 56.6934 41.5596 57.4591 41C57.2523 40.6417 57.075 40.2672 56.9291 39.88C55.8171 37.048 56.1607 33.8511 57.8491 31.32C57.6588 31.1502 57.4548 30.9963 57.2391 30.86C56.1606 30.1531 54.8987 29.7777 53.6091 29.78C51.5863 29.7705 49.6675 30.6753 48.388 32.2421C47.1086 33.8089 46.6055 35.8699 47.0191 37.85C47.1157 38.2465 47.2531 38.6319 47.4291 39H47.8991ZM23.2027 33.91C24.238 31.406 26.6796 29.7721 29.3891 29.77C30.9389 29.7946 32.4328 30.3526 33.6191 31.35V31.41C33.5672 31.4937 33.5205 31.5806 33.4791 31.67C33.2415 32.0737 33.0278 32.4911 32.8391 32.92C32.8271 32.947 32.8124 32.974 32.7977 33.001C32.7634 33.064 32.7291 33.127 32.7291 33.19C32.2998 34.3058 32.0926 35.4947 32.1191 36.69C32.1296 37.2547 32.1932 37.8172 32.3091 38.37V38.55C32.3806 38.8684 32.4707 39.1822 32.5791 39.49C31.1042 39.8248 29.7319 40.5109 28.5791 41.49C28.1244 41.8971 27.7123 42.3495 27.3491 42.84C26.3365 42.5164 25.4147 41.9579 24.6591 41.21C22.7422 39.295 22.1674 36.414 23.2027 33.91ZM63.0191 39.16C63.3534 39.1596 63.6873 39.1797 64.0191 39.22C66.1363 39.4502 68.1117 40.3956 69.6191 41.9C72.1108 40.1092 73.0701 36.8563 71.9491 34C70.9647 31.4685 68.5531 29.7785 65.8376 29.7172C63.1221 29.656 60.6368 31.2355 59.5391 33.72C58.8188 35.3467 58.7792 37.1939 59.4291 38.85C59.5387 39.139 59.669 39.4198 59.8191 39.69C60.8466 39.3274 61.9297 39.1481 63.0191 39.16ZM41.2291 41.7C39.6345 40.1918 37.5601 39.2926 35.3691 39.16V39.2C34.1925 36.6137 34.7779 33.5662 36.8291 31.6C38.0647 30.4029 39.7188 29.7355 41.4391 29.74C43.0001 29.7382 44.5131 30.2791 45.7191 31.27V31.32C44.3626 33.4062 43.8947 35.9475 44.4191 38.38C44.5095 38.7621 44.6196 39.1393 44.7491 39.51C43.4289 39.972 42.2269 40.7198 41.2291 41.7Z" fill="url(#paint1_linear_8_1325)"/>
<defs>
<linearGradient id="paint0_linear_8_1325" x1="0.202906" y1="0" x2="0.202906" y2="95.5942" gradientUnits="userSpaceOnUse">
<stop stop-color="white"/>
<stop offset="1" stop-color="#EEF4FE"/>
</linearGradient>
<linearGradient id="paint1_linear_8_1325" x1="22.1632" y1="15.7667" x2="18.5973" y2="81.0459" gradientUnits="userSpaceOnUse">
<stop stop-color="#00F0DD"/>
<stop offset="0.17" stop-color="#2EC4E4"/>
<stop offset="0.47" stop-color="#787EF0"/>
<stop offset="0.72" stop-color="#AE4BF8"/>
<stop offset="0.9" stop-color="#CF2BFD"/>
<stop offset="1" stop-color="#DC1FFF"/>
</linearGradient>
</defs>
</svg>
