<svg width="96" height="96" viewBox="0 0 96 96" fill="none" xmlns="http://www.w3.org/2000/svg">
<circle cx="48" cy="48" r="48" fill="url(#paint0_linear_8_1334)"/>
<circle cx="48" cy="48" r="48" fill="url(#paint1_linear_8_1334)"/>
<mask id="mask0_8_1334" style="mask-type:alpha" maskUnits="userSpaceOnUse" x="29" y="23" width="38" height="49">
<path fill-rule="evenodd" clip-rule="evenodd" d="M47.1552 24.0005C46.4572 24.6985 29.5718 42.4227 29.5718 52.4715C29.5718 62.7979 37.9451 71.1712 48.2715 71.1712C58.5999 71.1712 66.9732 62.7979 66.8345 52.4715C66.8345 42.4227 49.5286 24.6985 48.8307 24.0005L47.994 23.0229L47.1552 24.0005ZM32.084 52.4715C32.084 48.8409 35.0146 43.1206 40.4573 35.8615C43.5287 31.6759 46.5981 28.327 48.1327 26.6515C49.6674 28.327 52.8775 31.8146 55.9489 35.8615C61.5305 43.1206 64.461 48.8409 64.461 52.4715C64.461 61.4041 57.204 68.659 48.2715 68.659C39.341 68.659 32.084 61.4041 32.084 52.4715Z" fill="white"/>
</mask>
<g mask="url(#mask0_8_1334)">
<path fill-rule="evenodd" clip-rule="evenodd" d="M47.1552 24.0005C46.4572 24.6985 29.5718 42.4227 29.5718 52.4715C29.5718 62.7979 37.9451 71.1712 48.2715 71.1712C58.5999 71.1712 66.9732 62.7979 66.8345 52.4715C66.8345 42.4227 49.5286 24.6985 48.8307 24.0005L47.994 23.0229L47.1552 24.0005ZM32.084 52.4715C32.084 48.8409 35.0146 43.1206 40.4573 35.8615C43.5287 31.6759 46.5981 28.327 48.1327 26.6515C49.6674 28.327 52.8775 31.8146 55.9489 35.8615C61.5305 43.1206 64.461 48.8409 64.461 52.4715C64.461 61.4041 57.204 68.659 48.2715 68.659C39.341 68.659 32.084 61.4041 32.084 52.4715Z" fill="url(#paint2_linear_8_1334)"/>
</g>
<mask id="mask1_8_1334" style="mask-type:alpha" maskUnits="userSpaceOnUse" x="23" y="19" width="51" height="59">
<path fill-rule="evenodd" clip-rule="evenodd" d="M51.6246 19.5352C51.0675 20.0923 51.0675 20.9311 51.6246 21.3495C51.6246 21.3495 56.3694 26.0943 61.1142 32.3738C67.2549 40.4675 70.463 47.4449 70.463 52.4715C70.463 64.7529 60.555 74.6609 48.2756 74.6609C35.9942 74.6609 26.0862 64.7529 26.0862 52.4715C26.0862 40.19 44.5063 21.7657 44.7838 21.6291C45.2042 21.0699 45.2042 20.3719 44.7838 19.8148C44.2267 19.3943 43.5308 19.3943 42.9716 19.8148C42.1349 20.6515 23.574 39.2124 23.574 52.4715C23.574 66.1467 34.5983 77.171 48.2756 77.171C61.9509 77.171 72.9752 66.1467 73.1161 52.4715C73.1161 39.2124 54.2755 20.3719 53.4388 19.5352C53.1592 19.2556 52.8102 19.1147 52.4802 19.1147C52.148 19.1147 51.8327 19.2556 51.6246 19.5352Z" fill="white"/>
</mask>
<g mask="url(#mask1_8_1334)">
<path fill-rule="evenodd" clip-rule="evenodd" d="M51.6246 19.5352C51.0675 20.0923 51.0675 20.9311 51.6246 21.3495C51.6246 21.3495 56.3694 26.0943 61.1142 32.3738C67.2549 40.4675 70.463 47.4449 70.463 52.4715C70.463 64.7529 60.555 74.6609 48.2756 74.6609C35.9942 74.6609 26.0862 64.7529 26.0862 52.4715C26.0862 40.19 44.5063 21.7657 44.7838 21.6291C45.2042 21.0699 45.2042 20.3719 44.7838 19.8148C44.2267 19.3943 43.5308 19.3943 42.9716 19.8148C42.1349 20.6515 23.574 39.2124 23.574 52.4715C23.574 66.1467 34.5983 77.171 48.2756 77.171C61.9509 77.171 72.9752 66.1467 73.1161 52.4715C73.1161 39.2124 54.2755 20.3719 53.4388 19.5352C53.1592 19.2556 52.8102 19.1147 52.4802 19.1147C52.148 19.1147 51.8327 19.2556 51.6246 19.5352Z" fill="url(#paint3_linear_8_1334)"/>
</g>
<mask id="mask2_8_1334" style="mask-type:alpha" maskUnits="userSpaceOnUse" x="18" y="15" width="61" height="69">
<path fill-rule="evenodd" clip-rule="evenodd" d="M56.0876 15.4863C55.6693 16.0455 55.6693 16.7435 56.0876 17.3027C56.0876 17.4414 61.1121 22.6046 65.9956 29.582C72.416 38.7942 75.7649 46.8879 75.7649 53.1674C75.7649 68.2407 63.3468 80.7996 48.2735 80.7996C33.2002 80.7996 20.78 68.5182 20.78 53.3083C20.78 47.0267 24.1289 38.9329 30.5493 29.7229C35.435 22.6046 40.4573 17.4414 40.4573 17.4414C41.0165 16.8843 41.0165 16.0455 40.4573 15.6272C39.9002 15.068 39.0614 15.068 38.643 15.6272C38.3655 15.9047 33.4798 21.0679 28.4554 28.1861C21.7576 37.9554 18.2678 46.3287 18.2678 53.1674C18.2678 69.6366 31.8043 83.1731 48.2735 83.1731C64.8793 83.1731 78.2771 69.6366 78.2771 53.1674C78.2771 36.8391 58.5999 16.4639 57.9019 15.4863C57.6223 15.2782 57.3091 15.1731 56.9958 15.1731C56.6805 15.1731 56.3672 15.2782 56.0876 15.4863Z" fill="white"/>
</mask>
<g mask="url(#mask2_8_1334)">
<path fill-rule="evenodd" clip-rule="evenodd" d="M56.0876 15.4863C55.6693 16.0455 55.6693 16.7435 56.0876 17.3027C56.0876 17.4414 61.1121 22.6046 65.9956 29.582C72.416 38.7942 75.7649 46.8879 75.7649 53.1674C75.7649 68.2407 63.3468 80.7996 48.2735 80.7996C33.2002 80.7996 20.78 68.5182 20.78 53.3083C20.78 47.0267 24.1289 38.9329 30.5493 29.7229C35.435 22.6046 40.4573 17.4414 40.4573 17.4414C41.0165 16.8843 41.0165 16.0455 40.4573 15.6272C39.9002 15.068 39.0614 15.068 38.643 15.6272C38.3655 15.9047 33.4798 21.0679 28.4554 28.1861C21.7576 37.9554 18.2678 46.3287 18.2678 53.1674C18.2678 69.6366 31.8043 83.1731 48.2735 83.1731C64.8793 83.1731 78.2771 69.6366 78.2771 53.1674C78.2771 36.8391 58.5999 16.4639 57.9019 15.4863C57.6223 15.2782 57.3091 15.1731 56.9958 15.1731C56.6805 15.1731 56.3672 15.2782 56.0876 15.4863Z" fill="url(#paint4_linear_8_1334)"/>
</g>
<defs>
<linearGradient id="paint0_linear_8_1334" x1="0.202906" y1="0" x2="0.202906" y2="95.5942" gradientUnits="userSpaceOnUse">
<stop stop-color="white"/>
<stop offset="1" stop-color="#EEF4FE"/>
</linearGradient>
<linearGradient id="paint1_linear_8_1334" x1="0.202906" y1="0" x2="0.202906" y2="95.5942" gradientUnits="userSpaceOnUse">
<stop stop-color="white"/>
<stop offset="1" stop-color="#EEF4FE"/>
</linearGradient>
<linearGradient id="paint2_linear_8_1334" x1="66.8154" y1="71.1714" x2="66.8154" y2="23.0759" gradientUnits="userSpaceOnUse">
<stop stop-color="#04AAC4"/>
<stop offset="1" stop-color="#70DFEB"/>
</linearGradient>
<linearGradient id="paint3_linear_8_1334" x1="73.0732" y1="77.1721" x2="73.0732" y2="19.2147" gradientUnits="userSpaceOnUse">
<stop stop-color="#04AAC4"/>
<stop offset="1" stop-color="#70DFEB"/>
</linearGradient>
<linearGradient id="paint4_linear_8_1334" x1="78.2472" y1="83.1731" x2="78.2472" y2="15.2418" gradientUnits="userSpaceOnUse">
<stop stop-color="#04AAC4"/>
<stop offset="1" stop-color="#70DFEB"/>
</linearGradient>
</defs>
</svg>
