<svg width="71" height="70" viewBox="0 0 71 70" fill="none" xmlns="http://www.w3.org/2000/svg">
<path fill-rule="evenodd" clip-rule="evenodd" d="M68.3628 49.6547C67.4275 49.6547 66.6479 50.4344 66.6479 51.3696V58.541C66.6479 62.9845 63.0618 66.57 58.6189 66.57H50.8239C49.8886 66.57 49.1089 67.3497 49.1089 68.2849C49.1089 69.22 49.8887 69.9998 50.8239 69.9998H58.6189C64.9328 69.9998 70.0777 64.8549 70.0777 58.541V51.3696C70.0777 50.4338 69.2979 49.6547 68.3628 49.6547" fill="#00FFFF"/>
<path fill-rule="evenodd" clip-rule="evenodd" d="M58.6189 -0.00012207H50.8239C49.8886 -0.00012207 49.1089 0.779663 49.1089 1.71479C49.1089 2.64992 49.8887 3.42971 50.8239 3.42971H58.6189C63.0624 3.42971 66.6479 7.01572 66.6479 11.4586V19.7996C66.6479 20.7349 67.4276 21.5145 68.3628 21.5145C69.2979 21.5145 70.0777 20.7348 70.0777 19.7996V11.4586C70.0777 5.14476 64.9328 -0.00012207 58.6189 -0.00012207" fill="#00FFFF"/>
<path fill-rule="evenodd" clip-rule="evenodd" d="M49.8105 34.1424C50.9795 34.1424 51.9153 33.2072 51.9931 32.0376V26.4252C51.9931 25.1778 51.0578 24.2426 49.8105 24.2426C48.5631 24.2426 47.6279 25.2561 47.6279 26.4252V31.96C47.6279 33.2073 48.6414 34.1426 49.8105 34.1426V34.1424Z" fill="#00FFFF"/>
<path fill-rule="evenodd" clip-rule="evenodd" d="M45.7571 49.2648C42.9508 52.0711 39.2093 53.6299 35.3896 53.6299H34.7659C30.8683 53.6299 27.2047 52.0711 24.3984 49.2648C23.7748 48.5634 22.6835 48.5634 21.9821 49.2648C21.2807 49.8884 21.2807 50.9797 21.9821 51.6812C25.4897 55.1888 30.011 57.0599 34.766 57.0599H35.3898C40.1448 57.0599 44.7437 55.1889 48.1737 51.6812C48.8751 51.0576 48.8751 49.9662 48.1737 49.2648C47.5505 48.5634 46.4593 48.5634 45.7573 49.2648H45.7571Z" fill="#00FFFF"/>
<path fill-rule="evenodd" clip-rule="evenodd" d="M30.7905 44.5098H31.1804C34.6881 44.5098 37.4943 41.7036 37.4943 38.2736V26.425C37.4943 25.4897 36.7145 24.7101 35.7794 24.7101C34.8441 24.7101 34.0645 25.4899 34.0645 26.425V38.1954C34.0645 39.8327 32.7393 41.0794 31.1804 41.0794H30.7905C29.8553 41.0794 29.0756 41.8592 29.0756 42.7944C29.0756 43.7302 29.8554 44.5098 30.7905 44.5098" fill="#00FFFF"/>
<path fill-rule="evenodd" clip-rule="evenodd" d="M19.2538 24.2427C18.0065 24.2427 17.0712 25.2562 17.0712 26.4253V31.9601C17.0712 33.2074 18.0847 34.1427 19.2538 34.1427C20.5012 34.1427 21.4364 33.2074 21.4364 32.0379V26.4254C21.4364 25.1786 20.4229 24.2428 19.2538 24.2428V24.2427Z" fill="#00FFFF"/>
<path fill-rule="evenodd" clip-rule="evenodd" d="M1.79286 21.5144C2.72813 21.5144 3.50778 20.7346 3.50778 19.7995V11.4585C3.50778 7.01504 7.09379 3.42959 11.5367 3.42959H19.3318C20.267 3.42959 21.0467 2.6498 21.0467 1.71467C21.0467 0.779541 20.2669 -0.000244141 19.3318 -0.000244141H11.5367C5.22284 -0.000244141 0.0779495 5.14464 0.0779495 11.4585V19.7995C0.0779495 20.7348 0.857735 21.5144 1.79286 21.5144" fill="#00FFFF"/>
<path fill-rule="evenodd" clip-rule="evenodd" d="M19.2538 66.57H11.4588C7.01528 66.57 3.42983 62.984 3.42983 58.541V51.3696C3.42983 50.4343 2.65005 49.6547 1.71492 49.6547C0.779785 49.6547 0 50.4339 0 51.3696V58.541C0 64.8549 5.14489 69.9998 11.4588 69.9998H19.2538C20.2673 69.9998 20.9687 69.22 20.9687 68.2849C20.9687 67.3491 20.189 66.57 19.2538 66.57" fill="#00FFFF"/>
</svg>
