<svg width="71" height="70" viewBox="0 0 71 70" fill="none" xmlns="http://www.w3.org/2000/svg">
<mask id="mask0_0_55" style="mask-type:alpha" maskUnits="userSpaceOnUse" x="0" y="-1" width="71" height="71">
<path fill-rule="evenodd" clip-rule="evenodd" d="M0 -0.000244141H70.0012V69.9998H0V-0.000244141Z" fill="white"/>
</mask>
<g mask="url(#mask0_0_55)">
<path fill-rule="evenodd" clip-rule="evenodd" d="M3.3253 56.8497C3.3253 56.845 3.32489 56.8403 3.32489 56.8355V45.3223V43.6598V3.32458H23.0035V43.6598V45.3223V46.9848V56.8355C23.0035 62.108 18.8345 66.4241 13.62 66.6632C13.4689 66.6701 13.317 66.6748 13.1641 66.6748C13.113 66.6748 13.0627 66.6716 13.0117 66.6709C12.4412 66.6621 11.8825 66.6047 11.3391 66.5023C7.37786 65.756 4.24867 62.6293 3.49889 58.6692C3.38723 58.0793 3.32613 57.4715 3.3253 56.8497ZM66.6762 66.6633L21.9125 66.6632C24.6201 64.2504 26.3284 60.739 26.3284 56.8355V46.9848H66.6762V66.6633ZM69.5144 44.1466C69.2025 43.8349 68.7797 43.6598 68.3387 43.6598H26.3284V1.66211C26.3284 0.744007 25.584 -0.000366211 24.6659 -0.000366211H1.66241C0.744312 -0.000366211 -6.10352e-05 0.744007 -6.10352e-05 1.66211V56.8355C-6.10352e-05 64.0943 5.90532 69.9998 13.1641 69.9998C13.3416 69.9998 13.5181 69.9951 13.6937 69.9881L68.3387 69.9883C69.2568 69.9883 70.0012 69.2439 70.0012 68.3258V45.3223C70.0012 44.8813 69.8261 44.4585 69.5144 44.1466Z" fill="#00FFFF"/>
</g>
<path fill-rule="evenodd" clip-rule="evenodd" d="M37.1146 54.1677H58.8254V59.4803H37.1146V54.1677ZM35.4521 62.8052H60.4879C61.406 62.8052 62.1503 62.061 62.1503 61.1428V52.5052C62.1503 51.5871 61.406 50.8428 60.4879 50.8428H35.4521C35.0111 50.8428 34.5883 51.018 34.2766 51.3297C33.9648 51.6415 33.7896 52.0643 33.7896 52.5052V61.1428C33.7896 62.061 34.534 62.8052 35.4521 62.8052Z" fill="#00FFFF"/>
<path fill-rule="evenodd" clip-rule="evenodd" d="M13.2683 53C15.0637 53 16.5243 54.4606 16.5243 56.256C16.5243 58.0513 15.0637 59.5119 13.2683 59.5119C11.473 59.5119 10.0124 58.0513 10.0124 56.256C10.0124 54.4606 11.473 53 13.2683 53ZM13.2683 62.8369C16.8971 62.8369 19.8492 59.8847 19.8492 56.256C19.8492 52.6272 16.8971 49.675 13.2683 49.675C9.63956 49.675 6.68742 52.6272 6.68742 56.256C6.68742 59.8847 9.63956 62.8369 13.2683 62.8369Z" fill="#00FFFF"/>
</svg>
