<svg width="65" height="70" viewBox="0 0 65 70" fill="none" xmlns="http://www.w3.org/2000/svg">
<mask id="mask0_0_86" style="mask-type:alpha" maskUnits="userSpaceOnUse" x="18" y="-1" width="47" height="64">
<path fill-rule="evenodd" clip-rule="evenodd" d="M18.8243 -0.000244141H64.7876V62.6628H18.8243V-0.000244141Z" fill="white"/>
</mask>
<g mask="url(#mask0_0_86)">
<path fill-rule="evenodd" clip-rule="evenodd" d="M61.4627 35.1166C61.4627 41.3091 58.4482 47.1461 53.399 50.7308L41.806 58.9616L30.2129 50.7308C25.1637 47.1461 22.1492 41.3091 22.1492 35.1166V3.3247H61.4627V35.1166ZM63.1252 -0.000244141H20.4868C19.5687 -0.000244141 18.8243 0.74399 18.8243 1.66223V35.1166C18.8243 42.3843 22.3622 49.2349 28.2882 53.4419L40.8436 62.356C41.1318 62.5606 41.4688 62.6628 41.806 62.6628C42.1431 62.6628 42.4802 62.5606 42.7685 62.356L55.3238 53.4419C61.2498 49.2349 64.7877 42.3843 64.7877 35.1166V1.66223C64.7877 0.74399 64.0433 -0.000244141 63.1252 -0.000244141Z" fill="#00FFFF"/>
</g>
<mask id="mask1_0_86" style="mask-type:alpha" maskUnits="userSpaceOnUse" x="0" y="7" width="32" height="63">
<path fill-rule="evenodd" clip-rule="evenodd" d="M0 7.33655H31.3563V69.9997H0V7.33655Z" fill="white"/>
</mask>
<g mask="url(#mask1_0_86)">
<path fill-rule="evenodd" clip-rule="evenodd" d="M28.7656 62.4424L23.0071 66.3164L11.3886 58.0678C6.3394 54.4829 3.32492 48.646 3.32492 42.4535V10.6615H11.7419C12.6601 10.6615 13.4044 9.91712 13.4044 8.99902C13.4044 8.08078 12.6601 7.33655 11.7419 7.33655H1.66244C0.744342 7.33655 -3.05176e-05 8.08078 -3.05176e-05 8.99902V42.4535C-3.05176e-05 49.7211 3.53785 56.5717 9.46374 60.7789L22.0193 69.6928C22.3072 69.8973 22.6443 69.9998 22.9817 69.9998C23.3051 69.9998 23.6289 69.9056 23.9097 69.7166L30.6215 65.2012C31.3835 64.6887 31.5855 63.6556 31.073 62.8938C30.5604 62.132 29.5275 61.93 28.7656 62.4424Z" fill="#00FFFF"/>
</g>
<path fill-rule="evenodd" clip-rule="evenodd" d="M38.4396 37.6111C38.7642 37.9357 39.1897 38.0981 39.6152 38.0981C40.0406 38.0981 40.4661 37.9357 40.7908 37.6111L55.4358 22.9661C56.085 22.3168 56.085 21.2641 55.4358 20.6149C54.7866 19.9656 53.734 19.9656 53.0847 20.6149L39.6152 34.0844L34.1363 28.6056C33.4869 27.9563 32.4344 27.9564 31.7852 28.6056C31.136 29.2548 31.136 30.3074 31.7852 30.9566L38.4396 37.6111Z" fill="#00FFFF"/>
</svg>
